<!DOCTYPE svg PUBLIC "-//W3C//DTD SVG 1.1//EN" "http://www.w3.org/Graphics/SVG/1.1/DTD/svg11.dtd">
<!-- Uploaded to: SVG Repo, www.svgrepo.com, Transformed by: SVG Repo Mixer Tools -->
<svg version="1.1" id="Layer_1" xmlns="http://www.w3.org/2000/svg" xmlns:xlink="http://www.w3.org/1999/xlink" viewBox="0 0 512 512" xml:space="preserve" width="110px" height="110px" fill="#000000">
<g id="SVGRepo_bgCarrier" stroke-width="0"/>
<g id="SVGRepo_tracerCarrier" stroke-linecap="round" stroke-linejoin="round"/>
<g id="SVGRepo_iconCarrier"> <path style="fill:#415E72;" d="M18.008,385.6V84.36c0.096-5.304,4.368-9.576,9.672-9.672h456.64 c5.304,0.096,9.576,4.368,9.672,9.672V385.6H18.008z"/> <g> <path style="fill:#CFDCE5;" d="M493.992,385.6v38.64c-0.096,5.304-4.368,9.576-9.672,9.672H27.68 c-5.304-0.096-9.576-4.368-9.672-9.672V385.6H493.992z"/> <rect x="154.112" y="502.328" style="fill:#CFDCE5;" width="203.784" height="9.672"/> </g> <polygon style="fill:#AAC1CE;" points="323.68,502.328 188.32,502.328 197.992,433.912 314.008,433.912 "/> <rect x="37.344" y="94.024" style="fill:#FFFFFF;" width="437.312" height="272.16"/> <polygon style="fill:#8BA0AE;" points="314.008,433.912 197.992,433.912 192.592,472.096 315.744,446.2 "/> <path style="fill:#FFFFFF;" d="M256,324.64c-88.544,0-160.32-71.776-160.32-160.32S167.456,4,256,4s160.32,71.776,160.32,160.32 C416.216,252.824,344.504,324.536,256,324.64z"/> <path style="fill:#cccf26;" d="M256,8c86.336,0,156.32,69.984,156.32,156.32S342.336,320.64,256,320.64S99.68,250.656,99.68,164.32 l0,0C99.776,78.024,169.704,8.096,256,8 M256,0C165.248,0,91.68,73.568,91.68,164.32S165.248,328.64,256,328.64 s164.32-73.568,164.32-164.32S346.752,0,256,0L256,0z"/> <rect x="323.2" y="119.384" style="fill:#25B6D2;" width="23.6" height="6"/> <rect x="264.16" y="119.384" style="fill:#AAC1CE;" width="23.6" height="6"/> <g> <rect x="171.328" y="119.384" style="fill:#cccf26;" width="44.376" height="6"/> <rect x="339.912" y="198.848" style="fill:#cccf26;" width="23.6" height="6"/> </g> <rect x="280.88" y="198.848" style="fill:#25B6D2;" width="23.6" height="6"/> <rect x="174.688" y="198.848" style="fill:#cccf26;" width="70.808" height="6"/> <rect x="304.48" y="145.872" style="fill:#415E72;" width="59.008" height="6"/> <rect x="257.28" y="145.872" style="fill:#cccf26;" width="23.608" height="6"/> <rect x="181.216" y="145.872" style="fill:#AAC1CE;" width="52.472" height="6"/> <rect x="316.312" y="172.36" style="fill:#25B6D2;" width="47.2" height="6"/> <rect x="269.096" y="172.36" style="fill:#AAC1CE;" width="23.6" height="6"/> <g> <rect x="165.28" y="172.36" style="fill:#415E72;" width="56.64" height="6"/> <path style="fill:#415E72;" d="M159.84,76.528l15.36-7.904v2.28l-12.928,6.488v0.072l12.928,6.488v2.28l-15.36-7.912V76.528z"/> <path style="fill:#415E72;" d="M179.816,62.744h2.912v9.984h0.064c0.496-0.864,1.216-1.568,2.088-2.048 c0.904-0.52,1.928-0.8,2.976-0.8c2.152,0,5.6,1.32,5.6,6.848v9.52h-2.912v-9.216c0-2.576-0.96-4.8-3.704-4.8 c-1.792,0.032-3.36,1.208-3.904,2.912c-0.152,0.448-0.224,0.92-0.192,1.392v9.656h-2.912L179.816,62.744z"/> <path style="fill:#415E72;" d="M201.6,65.6v4.6h4.168v2.208H201.6v8.632c0,1.984,0.56,3.112,2.176,3.112 c0.568,0.008,1.136-0.056,1.688-0.192l0.136,2.184c-0.824,0.288-1.704,0.416-2.576,0.392c-1.176,0.072-2.32-0.368-3.144-1.216 c-0.888-1.2-1.288-2.688-1.128-4.168v-8.72h-2.488v-2.216h2.488V66.4L201.6,65.6z"/> <path style="fill:#415E72;" d="M209.016,74.544c0-1.648,0-3.008-0.136-4.328h2.544l0.136,2.576h0.104 c0.976-1.856,2.928-3,5.024-2.944c2.048-0.024,3.872,1.264,4.536,3.2h0.064c0.44-0.816,1.056-1.528,1.792-2.088 c1.008-0.776,2.264-1.176,3.536-1.128c2.12,0,5.256,1.392,5.256,6.944v9.432h-2.84V77.16c0-3.08-1.128-4.928-3.48-4.928 c-1.592,0.064-2.968,1.128-3.44,2.648c-0.152,0.472-0.232,0.96-0.232,1.456v9.888h-2.84v-9.6c0-2.544-1.128-4.4-3.344-4.4 c-1.696,0.104-3.136,1.272-3.6,2.904c-0.16,0.456-0.24,0.944-0.232,1.432v9.656h-2.84L209.016,74.544z"/> <path style="fill:#415E72;" d="M236.632,62.744h2.912v23.488h-2.912V62.744z"/> <path style="fill:#415E72;" d="M259.56,78.352l-15.352,7.872v-2.28l13.04-6.488v-0.064l-13.04-6.488v-2.28l15.352,7.872V78.352z"/> <path style="fill:#415E72;" d="M159.84,252.136l15.352-7.904v2.28L162.264,253v0.072l12.928,6.488v2.28l-15.352-7.904V252.136z"/> <path style="fill:#415E72;" d="M177.368,263.152l9.224-24h2.248l-9.264,24H177.368z"/> <path style="fill:#415E72;" d="M191.2,238.352h2.912v9.984h0.064c0.496-0.864,1.216-1.568,2.088-2.048 c0.904-0.52,1.928-0.8,2.976-0.8c2.152,0,5.6,1.32,5.6,6.848v9.52h-2.912v-9.216c0-2.576-0.96-4.8-3.704-4.8 c-1.792,0.032-3.36,1.208-3.904,2.912c-0.152,0.448-0.224,0.92-0.192,1.392v9.656H191.2V238.352z"/> <path style="fill:#415E72;" d="M212.92,241.224v4.6h4.168V248h-4.168v8.632c0,1.984,0.56,3.112,2.176,3.112 c0.568,0.008,1.136-0.056,1.688-0.192l0.136,2.184c-0.824,0.288-1.704,0.416-2.576,0.392c-1.176,0.072-2.32-0.368-3.144-1.216 c-0.888-1.2-1.288-2.688-1.128-4.168V248h-2.488v-2.208h2.488v-3.84L212.92,241.224z"/> <path style="fill:#415E72;" d="M220.376,250.152c0-1.648,0-3.008-0.136-4.328h2.544l0.136,2.576h0.104 c0.976-1.856,2.928-3,5.024-2.944c2.048-0.024,3.872,1.264,4.536,3.2h0.064c0.44-0.816,1.056-1.528,1.792-2.088 c1.008-0.776,2.264-1.176,3.536-1.128c2.12,0,5.256,1.392,5.256,6.944v9.432h-2.84V252.8c0-3.08-1.128-4.928-3.48-4.928 c-1.592,0.064-2.968,1.128-3.44,2.648c-0.152,0.472-0.232,0.96-0.232,1.456v9.888h-2.84v-9.6c0-2.544-1.128-4.4-3.344-4.4 c-1.696,0.104-3.136,1.272-3.6,2.904c-0.16,0.456-0.24,0.944-0.232,1.432v9.656h-2.84L220.376,250.152z"/> <path style="fill:#415E72;" d="M248,238.352h2.912v23.488H248V238.352z"/> <path style="fill:#415E72;" d="M270.92,253.96l-15.352,7.872v-2.28l13.04-6.488v-0.072l-13.04-6.488v-2.28l15.352,7.872V253.96z"/> </g> </g>
</svg>